<svg width="100" height="100" viewBox="0 0 100 100" fill="none" xmlns="http://www.w3.org/2000/svg">
<path d="M5.09375 44.4844C5.09375 41.1719 6.23438 37.6562 8.51562 33.9375C10.8281 30.1875 14.9844 26.7656 20.9844 23.6719L22.1094 25.7812C19.1094 27.9062 16.8906 29.6875 15.4531 31.125C12.9219 33.7188 11.6562 36.2031 11.6562 38.5781C11.6562 39.3906 11.8906 39.9219 12.3594 40.1719C12.8281 40.4531 13.2344 40.5938 13.5781 40.5938C14.7656 40.4375 15.5469 40.3594 15.9219 40.3594C17.9219 40.3594 19.5625 41.0938 20.8438 42.5625C22.125 44 22.7656 45.75 22.7656 47.8125C22.7656 50.125 22.0625 52.0625 20.6562 53.625C19.25 55.1562 17.3125 55.9219 14.8438 55.9219C11.9375 55.9219 9.57812 54.8906 7.76562 52.8281C5.98438 50.7344 5.09375 47.9531 5.09375 44.4844ZM30.9688 44.4844C30.9688 40.9844 32.1875 37.375 34.625 33.6562C37.0625 29.9375 41.1406 26.6094 46.8594 23.6719L47.9844 25.7812C45.1719 27.75 43.0156 29.4844 41.5156 30.9844C38.8594 33.6406 37.5312 36.1094 37.5312 38.3906C37.5312 39.0469 37.7031 39.5781 38.0469 39.9844C38.3906 40.3906 38.8594 40.5938 39.4531 40.5938C40.6406 40.4375 41.4219 40.3594 41.7969 40.3594C43.7656 40.3594 45.3906 41.0781 46.6719 42.5156C47.9844 43.9531 48.6406 45.7188 48.6406 47.8125C48.6406 50.25 47.9219 52.2188 46.4844 53.7188C45.0469 55.1875 43.0938 55.9219 40.625 55.9219C37.8125 55.9219 35.5 54.8906 33.6875 52.8281C31.875 50.7344 30.9688 47.9531 30.9688 44.4844Z" fill="white"/>
<path d="M93.9063 56.5156C93.9063 59.8281 92.7656 63.3438 90.4844 67.0625C88.1719 70.8125 84.0156 74.2344 78.0156 77.3281L76.8906 75.2188C79.8906 73.0938 82.1094 71.3125 83.5469 69.875C86.0781 67.2812 87.3438 64.7969 87.3438 62.4219C87.3438 61.6094 87.1094 61.0781 86.6406 60.8281C86.1719 60.5469 85.7656 60.4062 85.4219 60.4062C84.2344 60.5625 83.4531 60.6406 83.0781 60.6406C81.0781 60.6406 79.4375 59.9062 78.1562 58.4375C76.875 57 76.2344 55.25 76.2344 53.1875C76.2344 50.875 76.9375 48.9375 78.3438 47.375C79.75 45.8437 81.6875 45.0781 84.1563 45.0781C87.0625 45.0781 89.4219 46.1094 91.2344 48.1719C93.0156 50.2656 93.9063 53.0469 93.9063 56.5156ZM68.0313 56.5156C68.0312 60.0156 66.8125 63.625 64.375 67.3438C61.9375 71.0625 57.8594 74.3906 52.1406 77.3281L51.0156 75.2187C53.8281 73.25 55.9844 71.5156 57.4844 70.0156C60.1406 67.3594 61.4688 64.8906 61.4688 62.6094C61.4688 61.9531 61.2969 61.4219 60.9531 61.0156C60.6094 60.6094 60.1406 60.4062 59.5469 60.4062C58.3594 60.5625 57.5781 60.6406 57.2031 60.6406C55.2344 60.6406 53.6094 59.9219 52.3281 58.4844C51.0156 57.0469 50.3594 55.2812 50.3594 53.1875C50.3594 50.75 51.0781 48.7812 52.5156 47.2812C53.9531 45.8125 55.9063 45.0781 58.375 45.0781C61.1875 45.0781 63.5 46.1094 65.3125 48.1719C67.125 50.2656 68.0313 53.0469 68.0313 56.5156Z" fill="white"/>
</svg>
